# xmcd
#
# Track frame offsets:
#	150
#	21676
#	44768
#	70471
#	89744
#	112222
#	133316
#	161517
#	186979
#	211223
#	229306
#	249467
#	271902
#	286381
#
# Disc length: 4041 seconds
#
# Revision: 0
# Processed by: cddbd v1.4PL0 Copyright (c) Steve Scherf et al.
# Submitted via: dBpowerAMP V4.0
#
DISCID=e80fc70e
DTITLE=Lam Vu - An nang muon mang
DYEAR=1900
DGENRE=
TTITLE0=An nang muon mang
TTITLE1=Trai tim tinh nhan
TTITLE2=Van mong em quay ve
TTITLE3=Song tinh mai mai
TTITLE4=Cuoc tinh da xa
TTITLE5=Mong hoi am mua dong
TTITLE6=Tan van chua yen
TTITLE7=Hat cho nguoi da xa
TTITLE8=Cuoc tinh khong lua doi
TTITLE9=Giay phut chia tay
TTITLE10=Ve dau em hoi
TTITLE11=Lang le
TTITLE12=Cho nguoi tinh xa
TTITLE13=Co be ma lun dong tien
EXTD=
EXTT0=
EXTT1=
EXTT2=
EXTT3=
EXTT4=
EXTT5=
EXTT6=
EXTT7=
EXTT8=
EXTT9=
EXTT10=
EXTT11=
EXTT12=
EXTT13=
PLAYORDER=
